<?xml version="1.0" encoding="UTF-8"?>
<svg xmlns="http://www.w3.org/2000/svg" viewBox="0 0 64 64" width="64" height="64">
  <!-- DialTone favicon — filled utensils + line phone -->
  <!-- Brand color: #3B82F6 -->

  <!-- Fork (left, filled silhouette) -->
  <path fill="#3B82F6" d="
    M9.3 23 L9.3 13 Q9.3 12.5 9.85 12.5 Q10.4 12.5 10.4 13 L10.4 21 L11.4 21 L11.4 13
    Q11.4 12.5 11.95 12.5 Q12.5 12.5 12.5 13 L12.5 21 L13.5 21 L13.5 13
    Q13.5 12.5 14.05 12.5 Q14.6 12.5 14.6 13 L14.6 21 L15.6 21 L15.6 13
    Q15.6 12.5 16.15 12.5 Q16.7 12.5 16.7 13 L16.7 23
    C16.7 25 14.4 25.3 14 26.5 L14.2 50 Q14.2 51.5 13 51.5 Q11.8 51.5 11.8 50 L12 26.5
    C11.6 25.3 9.3 25 9.3 23 Z"/>

  <!-- Knife (right, filled silhouette) -->
  <path fill="#3B82F6" transform="translate(0.3,0)" d="
    M53 12 C53.2 16 53.0 24 52.9 30 C53.0 36 53.1 42 53.0 47
    C53.0 50.8 50.0 50.8 50.1 47 C50.0 42 50.2 37 50.4 34
    C50.6 30 48.6 27 48.4 24 C48.6 19 50.5 14 53 12 Z"/>

  <!-- Phone handset (center, line, thinner) -->
  <g transform="translate(19,20)" stroke="#3B82F6" stroke-width="2.0"
     stroke-linecap="round" stroke-linejoin="round" fill="none">
    <path d="M 22 16.92 v 3 a 2 2 0 0 1 -2.18 2 19.79 19.79 0 0 1 -8.63 -3.07
             19.5 19.5 0 0 1 -6 -6 19.79 19.79 0 0 1 -3.07 -8.67 A 2 2 0 0 1 4.11 2
             h 3 a 2 2 0 0 1 2 1.72 12.84 12.84 0 0 0 0.7 2.81 2 2 0 0 1 -0.45 2.11
             L 8.09 9.91 a 16 16 0 0 0 6 6 l 1.27 -1.27 a 2 2 0 0 1 2.11 -0.45
             12.84 12.84 0 0 0 2.81 0.7 A 2 2 0 0 1 22 16.92 z"/>
  </g>
</svg>
