<?xml version="1.0" encoding="UTF-8"?>
<svg xmlns="http://www.w3.org/2000/svg" viewBox="0 0 64 64" width="64" height="64">
  <!-- DialTone favicon — phone handset inside circle -->
  <!-- Brand color: #3B82F6 -->
  
  <!-- Outer ring -->
  <circle cx="32" cy="32" r="28" 
          fill="none" 
          stroke="#3B82F6" 
          stroke-width="3"/>
  
  <!-- Phone handset (Lucide-style "phone" icon, centered and scaled) -->
  <!-- Original 24x24 viewBox path, transformed to fit inside the 64x64 favicon -->
  <g transform="translate(20, 20)" stroke="#3B82F6" stroke-width="2.5" 
     stroke-linecap="round" stroke-linejoin="round" fill="none">
    <path d="M 22 16.92 
             v 3 
             a 2 2 0 0 1 -2.18 2 
             19.79 19.79 0 0 1 -8.63 -3.07 
             19.5 19.5 0 0 1 -6 -6 
             19.79 19.79 0 0 1 -3.07 -8.67 
             A 2 2 0 0 1 4.11 2 
             h 3 
             a 2 2 0 0 1 2 1.72 
             12.84 12.84 0 0 0 0.7 2.81 
             2 2 0 0 1 -0.45 2.11 
             L 8.09 9.91 
             a 16 16 0 0 0 6 6 
             l 1.27 -1.27 
             a 2 2 0 0 1 2.11 -0.45 
             12.84 12.84 0 0 0 2.81 0.7 
             A 2 2 0 0 1 22 16.92 z"/>
  </g>
</svg>
